<svg width="51" height="49" viewBox="0 0 51 49" fill="none" xmlns="http://www.w3.org/2000/svg">
<circle cx="24.5" cy="24.5" r="24.5" fill="white"/>
<path d="M17.918 36.9961C18.6081 36.9961 19.2201 36.8659 19.7539 36.6055C20.2878 36.332 20.7044 35.9544 21.0039 35.4727C21.3164 34.9779 21.4792 34.3984 21.4922 33.7344H26.7852C26.7721 35.2188 26.375 36.5404 25.5938 37.6992C24.8125 38.8451 23.7643 39.75 22.4492 40.4141C21.1341 41.0651 19.6628 41.3906 18.0352 41.3906C16.3945 41.3906 14.9622 41.1172 13.7383 40.5703C12.5273 40.0234 11.5182 39.2682 10.7109 38.3047C9.90365 37.3281 9.29818 36.1953 8.89453 34.9062C8.49089 33.6042 8.28906 32.2109 8.28906 30.7266V30.1602C8.28906 28.6628 8.49089 27.2695 8.89453 25.9805C9.29818 24.6784 9.90365 23.5456 10.7109 22.582C11.5182 21.6055 12.5273 20.8438 13.7383 20.2969C14.9492 19.75 16.3685 19.4766 17.9961 19.4766C19.7279 19.4766 21.2448 19.8086 22.5469 20.4727C23.862 21.1367 24.8906 22.0872 25.6328 23.3242C26.388 24.5482 26.7721 26 26.7852 27.6797H21.4922C21.4792 26.9766 21.3294 26.3385 21.043 25.7656C20.7695 25.1927 20.3659 24.737 19.832 24.3984C19.3112 24.0469 18.6667 23.8711 17.8984 23.8711C17.0781 23.8711 16.4076 24.0469 15.8867 24.3984C15.3659 24.737 14.9622 25.2057 14.6758 25.8047C14.3893 26.3906 14.1875 27.0612 14.0703 27.8164C13.9661 28.5586 13.9141 29.3398 13.9141 30.1602V30.7266C13.9141 31.5469 13.9661 32.3346 14.0703 33.0898C14.1745 33.8451 14.3698 34.5156 14.6562 35.1016C14.9557 35.6875 15.3659 36.1497 15.8867 36.4883C16.4076 36.8268 17.0846 36.9961 17.918 36.9961ZM27.9484 30.6484V30.2383C27.9484 28.6888 28.1698 27.263 28.6125 25.9609C29.0552 24.6458 29.6997 23.5065 30.5461 22.543C31.3924 21.5794 32.4341 20.8307 33.6711 20.2969C34.9081 19.75 36.3273 19.4766 37.9289 19.4766C39.5305 19.4766 40.9562 19.75 42.2062 20.2969C43.4562 20.8307 44.5044 21.5794 45.3508 22.543C46.2102 23.5065 46.8612 24.6458 47.3039 25.9609C47.7466 27.263 47.968 28.6888 47.968 30.2383V30.6484C47.968 32.1849 47.7466 33.6107 47.3039 34.9258C46.8612 36.2279 46.2102 37.3672 45.3508 38.3438C44.5044 39.3073 43.4628 40.056 42.2258 40.5898C40.9888 41.1237 39.5695 41.3906 37.968 41.3906C36.3664 41.3906 34.9406 41.1237 33.6906 40.5898C32.4536 40.056 31.4055 39.3073 30.5461 38.3438C29.6997 37.3672 29.0552 36.2279 28.6125 34.9258C28.1698 33.6107 27.9484 32.1849 27.9484 30.6484ZM33.5734 30.2383V30.6484C33.5734 31.5339 33.6516 32.3607 33.8078 33.1289C33.9641 33.8971 34.2115 34.5742 34.55 35.1602C34.9016 35.7331 35.3573 36.1823 35.9172 36.5078C36.4771 36.8333 37.1607 36.9961 37.968 36.9961C38.7492 36.9961 39.4198 36.8333 39.9797 36.5078C40.5396 36.1823 40.9888 35.7331 41.3273 35.1602C41.6659 34.5742 41.9133 33.8971 42.0695 33.1289C42.2388 32.3607 42.3234 31.5339 42.3234 30.6484V30.2383C42.3234 29.3789 42.2388 28.5716 42.0695 27.8164C41.9133 27.0482 41.6594 26.3711 41.3078 25.7852C40.9693 25.1862 40.5201 24.7174 39.9602 24.3789C39.4003 24.0404 38.7232 23.8711 37.9289 23.8711C37.1346 23.8711 36.4576 24.0404 35.8977 24.3789C35.3508 24.7174 34.9016 25.1862 34.55 25.7852C34.2115 26.3711 33.9641 27.0482 33.8078 27.8164C33.6516 28.5716 33.5734 29.3789 33.5734 30.2383Z" fill="#1D1F20"/>
<circle cx="24.5" cy="24.5" r="24.5" fill="white"/>
<path d="M17.918 36.9961C18.6081 36.9961 19.2201 36.8659 19.7539 36.6055C20.2878 36.332 20.7044 35.9544 21.0039 35.4727C21.3164 34.9779 21.4792 34.3984 21.4922 33.7344H26.7852C26.7721 35.2188 26.375 36.5404 25.5938 37.6992C24.8125 38.8451 23.7643 39.75 22.4492 40.4141C21.1341 41.0651 19.6628 41.3906 18.0352 41.3906C16.3945 41.3906 14.9622 41.1172 13.7383 40.5703C12.5273 40.0234 11.5182 39.2682 10.7109 38.3047C9.90365 37.3281 9.29818 36.1953 8.89453 34.9062C8.49089 33.6042 8.28906 32.2109 8.28906 30.7266V30.1602C8.28906 28.6628 8.49089 27.2695 8.89453 25.9805C9.29818 24.6784 9.90365 23.5456 10.7109 22.582C11.5182 21.6055 12.5273 20.8438 13.7383 20.2969C14.9492 19.75 16.3685 19.4766 17.9961 19.4766C19.7279 19.4766 21.2448 19.8086 22.5469 20.4727C23.862 21.1367 24.8906 22.0872 25.6328 23.3242C26.388 24.5482 26.7721 26 26.7852 27.6797H21.4922C21.4792 26.9766 21.3294 26.3385 21.043 25.7656C20.7695 25.1927 20.3659 24.737 19.832 24.3984C19.3112 24.0469 18.6667 23.8711 17.8984 23.8711C17.0781 23.8711 16.4076 24.0469 15.8867 24.3984C15.3659 24.737 14.9622 25.2057 14.6758 25.8047C14.3893 26.3906 14.1875 27.0612 14.0703 27.8164C13.9661 28.5586 13.9141 29.3398 13.9141 30.1602V30.7266C13.9141 31.5469 13.9661 32.3346 14.0703 33.0898C14.1745 33.8451 14.3698 34.5156 14.6562 35.1016C14.9557 35.6875 15.3659 36.1497 15.8867 36.4883C16.4076 36.8268 17.0846 36.9961 17.918 36.9961ZM27.9484 30.6484V30.2383C27.9484 28.6888 28.1698 27.263 28.6125 25.9609C29.0552 24.6458 29.6997 23.5065 30.5461 22.543C31.3924 21.5794 32.4341 20.8307 33.6711 20.2969C34.9081 19.75 36.3273 19.4766 37.9289 19.4766C39.5305 19.4766 40.9562 19.75 42.2062 20.2969C43.4562 20.8307 44.5044 21.5794 45.3508 22.543C46.2102 23.5065 46.8612 24.6458 47.3039 25.9609C47.7466 27.263 47.968 28.6888 47.968 30.2383V30.6484C47.968 32.1849 47.7466 33.6107 47.3039 34.9258C46.8612 36.2279 46.2102 37.3672 45.3508 38.3438C44.5044 39.3073 43.4628 40.056 42.2258 40.5898C40.9888 41.1237 39.5695 41.3906 37.968 41.3906C36.3664 41.3906 34.9406 41.1237 33.6906 40.5898C32.4536 40.056 31.4055 39.3073 30.5461 38.3438C29.6997 37.3672 29.0552 36.2279 28.6125 34.9258C28.1698 33.6107 27.9484 32.1849 27.9484 30.6484ZM33.5734 30.2383V30.6484C33.5734 31.5339 33.6516 32.3607 33.8078 33.1289C33.9641 33.8971 34.2115 34.5742 34.55 35.1602C34.9016 35.7331 35.3573 36.1823 35.9172 36.5078C36.4771 36.8333 37.1607 36.9961 37.968 36.9961C38.7492 36.9961 39.4198 36.8333 39.9797 36.5078C40.5396 36.1823 40.9888 35.7331 41.3273 35.1602C41.6659 34.5742 41.9133 33.8971 42.0695 33.1289C42.2388 32.3607 42.3234 31.5339 42.3234 30.6484V30.2383C42.3234 29.3789 42.2388 28.5716 42.0695 27.8164C41.9133 27.0482 41.6594 26.3711 41.3078 25.7852C40.9693 25.1862 40.5201 24.7174 39.9602 24.3789C39.4003 24.0404 38.7232 23.8711 37.9289 23.8711C37.1346 23.8711 36.4576 24.0404 35.8977 24.3789C35.3508 24.7174 34.9016 25.1862 34.55 25.7852C34.2115 26.3711 33.9641 27.0482 33.8078 27.8164C33.6516 28.5716 33.5734 29.3789 33.5734 30.2383Z" fill="#1D1F20"/>
</svg>
