<svg xmlns="http://www.w3.org/2000/svg" xmlns:xlink="http://www.w3.org/1999/xlink" viewBox="0,0,256,256" width="32px" height="32px" fill-rule="nonzero"><g fill="#45443e" fill-rule="nonzero" stroke="none" stroke-width="1" stroke-linecap="butt" stroke-linejoin="miter" stroke-miterlimit="10" stroke-dasharray="" stroke-dashoffset="0" font-family="none" font-weight="none" font-size="none" text-anchor="none" style="mix-blend-mode: normal"><g transform="scale(8,8)"><path d="M14.21875,5c-0.67969,0 -1.25,0.57031 -1.25,1.25c0,1.51172 -0.76562,2.56641 -1.625,3.3125c-0.42969,0.375 -0.89062,0.66016 -1.21875,0.84375c-0.16406,0.08984 -0.28125,0.14453 -0.375,0.1875c-0.04687,0.02344 -0.07031,0.05469 -0.09375,0.0625c-0.02344,0.00781 -0.12109,0.03125 -0.03125,0c-0.48437,0.19141 -0.8125,0.64063 -0.8125,1.15625v2.21875c0,0.67969 0.57031,1.25 1.25,1.25h1.125v5.21875c0,0.35547 0,1.84375 0.6875,3.375c0.6875,1.53125 2.26172,3.125 4.84375,3.125c3.93359,0 5.88672,-1.55859 6.03125,-1.6875c0.26953,-0.23828 0.4375,-0.58984 0.4375,-0.9375v-2.65625c0,-0.44531 -0.26562,-0.875 -0.65625,-1.09375c-0.375,-0.20703 -0.83203,-0.16406 -1.21875,0.0625l-0.03125,-0.03125l-0.03125,0.03125c-0.07031,0.03906 -1.15625,0.65625 -2.34375,0.65625c-0.61719,0 -0.66016,-0.17578 -0.78125,-0.40625c-0.12109,-0.23047 -0.15625,-0.625 -0.15625,-0.53125v-4.9375h3.09375c0.67969,0 1.25,-0.56641 1.25,-1.25v-3c0,-0.68359 -0.57031,-1.25 -1.25,-1.25h-3.09375v-3.71875c0,-0.67969 -0.57031,-1.25 -1.25,-1.25zM14.78125,7h1.1875v4.96875h4.34375v1.5h-4.34375v6.9375c0,0.17188 0.00781,0.75781 0.375,1.46875c0.36719,0.71094 1.29297,1.46875 2.5625,1.46875c0.90234,0 1.68359,-0.21484 2.28125,-0.4375v1.03125c-0.26172,0.20703 -1.42578,1.0625 -4.46875,1.0625c-1.83984,0 -2.51562,-0.86328 -3,-1.9375c-0.48437,-1.07422 -0.53125,-2.35547 -0.53125,-2.5625v-7.21875h-2.375v-0.96875c0.09766,-0.05078 0.1875,-0.08594 0.3125,-0.15625c0.42188,-0.23437 0.96875,-0.60156 1.53125,-1.09375c0.98047,-0.85547 1.87109,-2.26953 2.125,-4.0625z"></path></g></g></svg>